<svg xmlns="http://www.w3.org/2000/svg" width="64" height="64" viewBox="0 0 24 24" fill="#1D4ED8">
  <path d="M3 4.75A1.75 1.75 0 0 1 4.75 3h14.5A1.75 1.75 0 0 1 21 4.75v3.5A1.75 1.75 0 0 1 19.25 10H4.75A1.75 1.75 0 0 1 3 8.25v-3.5Zm1.75-.25a.25.25 0 0 0-.25.25v3.5c0 .138.112.25.25.25h14.5a.25.25 0 0 0 .25-.25v-3.5a.25.25 0 0 0-.25-.25H4.75Zm-1.75 9A1.75 1.75 0 0 1 4.75 11h14.5A1.75 1.75 0 0 1 21 12.75v6.5A1.75 1.75 0 0 1 19.25 21H4.75A1.75 1.75 0 0 1 3 19.25v-6.5Zm1.75-.25a.25.25 0 0 0-.25.25v6.5c0 .138.112.25.25.25h14.5a.25.25 0 0 0 .25-.25v-6.5a.25.25 0 0 0-.25-.25H4.75Z"/>
</svg>
