<svg xmlns="http://www.w3.org/2000/svg" width="64" height="64" viewBox="0 0 24 24" fill="#7C3AED">
  <path d="M12 1.75a1 1 0 0 1 1 1V4h2.25A2.75 2.75 0 0 1 18 6.75V9h1.25A2.75 2.75 0 0 1 22 11.75v5.5A2.75 2.75 0 0 1 19.25 20h-2.5a1 1 0 1 1 0-2h2.5a.75.75 0 0 0 .75-.75v-5.5a.75.75 0 0 0-.75-.75h-2.5a1 1 0 0 1-1-1V6.75a.75.75 0 0 0-.75-.75H13v1.25a1 1 0 1 1-2 0V6H8.75A2.75 2.75 0 0 0 6 8.75V11H4.75A2.75 2.75 0 0 0 2 13.75v5.5A2.75 2.75 0 0 0 4.75 22h6.5A2.75 2.75 0 0 0 14 19.25v-5.5A2.75 2.75 0 0 0 11.25 11H8V8.75c0-.414.336-.75.75-.75H11V2.75a1 1 0 0 1 1-1Zm-3.5 13a1 1 0 0 1 1 1v1h1a1 1 0 1 1 0 2h-1v1a1 1 0 1 1-2 0v-1h-1a1 1 0 1 1 0-2h1v-1a1 1 0 0 1 1-1Z"/>
</svg>
